{
  "accessors": [
    {
      "bufferView": 2,
      "componentType": 5126,
      "count": 2384,
      "max": [
        88.66439819335938,
        172.28370666503906,
        121.69740295410156
      ],
      "min": [
        -88.66439819335938,
        -154.98519897460938,
        2.022900104522705
      ],
      "type": "VEC3"
    },
    {
      "bufferView": 2,
      "byteOffset": 28608,
      "componentType": 5126,
      "count": 2384,
      "max": [
        1.0,
        0.9999998807907104,
        0.9999206066131592
      ],
      "min": [
        -1.0,
        -0.9999880790710449,
        -1.0
      ],
      "type": "VEC3"
    },
    {
      "bufferView": 1,
      "componentType": 5126,
      "count": 2384,
      "max": [
        0.9916999936103821,
        0.9825999736785889
      ],
      "min": [
        0.013100000098347664,
        0.019999999552965164
      ],
      "type": "VEC2"
    },
    {
      "bufferView": 0,
      "componentType": 5125,
      "count": 9999,
      "type": "SCALAR"
    },
    {
      "bufferView": 2,
      "byteOffset": 57216,
      "componentType": 5126,
      "count": 221,
      "max": [
        85.13410186767578,
        86.49859619140625,
        121.69740295410156
      ],
      "min": [
        -77.5469970703125,
        -137.97479248046875,
        4.057600021362305
      ],
      "type": "VEC3"
    },
    {
      "bufferView": 2,
      "byteOffset": 59868,
      "componentType": 5126,
      "count": 221,
      "max": [
        0.9993114471435547,
        0.7834997177124023,
        0.9999206066131592
      ],
      "min": [
        -0.9987003803253174,
        -0.9233462810516357,
        -0.21820853650569916
      ],
      "type": "VEC3"
    },
    {
      "bufferView": 1,
      "byteOffset": 19072,
      "componentType": 5126,
      "count": 221,
      "max": [
        0.5824999809265137,
        0.9140999913215637
      ],
      "min": [
        0.060499999672174454,
        0.4336000084877014
      ],
      "type": "VEC2"
    },
    {
      "bufferView": 0,
      "byteOffset": 39996,
      "componentType": 5125,
      "count": 855,
      "type": "SCALAR"
    },
    {
      "bufferView": 2,
      "byteOffset": 62520,
      "componentType": 5126,
      "count": 1824,
      "max": [
        76.96170043945313,
        123.22779846191406,
        74.95899963378906
      ],
      "min": [
        -76.92120361328125,
        -134.65420532226563,
        -0.8680999875068665
      ],
      "type": "VEC3"
    },
    {
      "bufferView": 2,
      "byteOffset": 84408,
      "componentType": 5126,
      "count": 1824,
      "max": [
        1.0,
        1.0,
        1.0
      ],
      "min": [
        -1.0,
        -1.0,
        -1.0
      ],
      "type": "VEC3"
    },
    {
      "bufferView": 1,
      "byteOffset": 20840,
      "componentType": 5126,
      "count": 1824,
      "max": [
        0.9872999787330627,
        0.9833999872207642
      ],
      "min": [
        0.009399999864399433,
        0.015599999576807022
      ],
      "type": "VEC2"
    },
    {
      "bufferView": 0,
      "byteOffset": 43416,
      "componentType": 5125,
      "count": 8784,
      "type": "SCALAR"
    },
    {
      "bufferView": 2,
      "byteOffset": 106296,
      "componentType": 5126,
      "count": 35,
      "max": [
        63.66559982299805,
        -3.3598999977111816,
        116.33550262451172
      ],
      "min": [
        -63.66559982299805,
        -39.950599670410156,
        79.622802734375
      ],
      "type": "VEC3"
    },
    {
      "bufferView": 2,
      "byteOffset": 106716,
      "componentType": 5126,
      "count": 35,
      "max": [
        0.23909594118595123,
        -0.6664025783538818,
        0.7251418828964233
      ],
      "min": [
        -0.23909594118595123,
        -0.7411219477653503,
        0.6652805209159851
      ],
      "type": "VEC3"
    },
    {
      "bufferView": 1,
      "byteOffset": 35432,
      "componentType": 5126,
      "count": 35,
      "max": [
        0.9901999831199646,
        0.9706000089645386
      ],
      "min": [
        0.011500000022351742,
        0.03269999846816063
      ],
      "type": "VEC2"
    },
    {
      "bufferView": 0,
      "byteOffset": 78552,
      "componentType": 5125,
      "count": 108,
      "type": "SCALAR"
    }
  ],
  "asset": {
    "extras": {
      "author": "Creationed2020 (https://sketchfab.com/Creationed2020)",
      "license": "CC-BY-4.0 (http://creativecommons.org/licenses/by/4.0/)",
      "source": "https://sketchfab.com/3d-models/pc-computer-disney-infinity-chick-hicks-d80531adac184b55be0756e4b6b6c110",
      "title": "PC Computer - Disney Infinity - Chick Hicks"
    },
    "generator": "Sketchfab-12.67.0",
    "version": "2.0"
  },
  "bufferViews": [
    {
      "buffer": 0,
      "byteLength": 78984,
      "name": "floatBufferViews",
      "target": 34963
    },
    {
      "buffer": 0,
      "byteLength": 35712,
      "byteOffset": 78984,
      "byteStride": 8,
      "name": "floatBufferViews",
      "target": 34962
    },
    {
      "buffer": 0,
      "byteLength": 107136,
      "byteOffset": 114696,
      "byteStride": 12,
      "name": "floatBufferViews",
      "target": 34962
    }
  ],
  "buffers": [
    {
      "byteLength": 221832,
      "uri": "scene.bin"
    }
  ],
  "images": [
    {
      "uri": "textures/Material__32_baseColor.png"
    },
    {
      "uri": "textures/Material__37_baseColor.png"
    },
    {
      "uri": "textures/Material__42_baseColor.png"
    }
  ],
  "materials": [
    {
      "doubleSided": true,
      "emissiveTexture": {
        "index": 0
      },
      "name": "Material__32",
      "pbrMetallicRoughness": {
        "baseColorTexture": {
          "index": 0
        },
        "metallicFactor": 0.0
      }
    },
    {
      "doubleSided": true,
      "emissiveTexture": {
        "index": 1
      },
      "name": "Material__37",
      "pbrMetallicRoughness": {
        "baseColorTexture": {
          "index": 1
        },
        "metallicFactor": 0.0
      }
    },
    {
      "doubleSided": true,
      "emissiveTexture": {
        "index": 2
      },
      "name": "Material__42",
      "pbrMetallicRoughness": {
        "baseColorTexture": {
          "index": 2
        },
        "metallicFactor": 0.0
      }
    }
  ],
  "meshes": [
    {
      "name": "Object_0",
      "primitives": [
        {
          "attributes": {
            "NORMAL": 1,
            "POSITION": 0,
            "TEXCOORD_0": 2
          },
          "indices": 3,
          "material": 0,
          "mode": 4
        }
      ]
    },
    {
      "name": "Object_1",
      "primitives": [
        {
          "attributes": {
            "NORMAL": 5,
            "POSITION": 4,
            "TEXCOORD_0": 6
          },
          "indices": 7,
          "material": 0,
          "mode": 4
        }
      ]
    },
    {
      "name": "Object_2",
      "primitives": [
        {
          "attributes": {
            "NORMAL": 9,
            "POSITION": 8,
            "TEXCOORD_0": 10
          },
          "indices": 11,
          "material": 1,
          "mode": 4
        }
      ]
    },
    {
      "name": "Object_3",
      "primitives": [
        {
          "attributes": {
            "NORMAL": 13,
            "POSITION": 12,
            "TEXCOORD_0": 14
          },
          "indices": 15,
          "material": 2,
          "mode": 4
        }
      ]
    }
  ],
  "nodes": [
    {
      "children": [
        1
      ],
      "matrix": [
        1.0,
        0.0,
        0.0,
        0.0,
        0.0,
        2.220446049250313e-16,
        -1.0,
        0.0,
        0.0,
        1.0,
        2.220446049250313e-16,
        0.0,
        0.0,
        0.0,
        0.0,
        1.0
      ],
      "name": "Sketchfab_model"
    },
    {
      "children": [
        2,
        3,
        4,
        5
      ],
      "name": "Chick Hicks.obj.cleaner.materialmerger.gles"
    },
    {
      "mesh": 0,
      "name": "Object_2"
    },
    {
      "mesh": 1,
      "name": "Object_3"
    },
    {
      "mesh": 2,
      "name": "Object_4"
    },
    {
      "mesh": 3,
      "name": "Object_5"
    }
  ],
  "samplers": [
    {
      "magFilter": 9729,
      "minFilter": 9987,
      "wrapS": 10497,
      "wrapT": 10497
    }
  ],
  "scene": 0,
  "scenes": [
    {
      "name": "Sketchfab_Scene",
      "nodes": [
        0
      ]
    }
  ],
  "textures": [
    {
      "sampler": 0,
      "source": 0
    },
    {
      "sampler": 0,
      "source": 1
    },
    {
      "sampler": 0,
      "source": 2
    }
  ]
}
